<?xml version="1.0" encoding="UTF-8" standalone="no"?>
<!DOCTYPE svg PUBLIC "-//W3C//DTD SVG 1.1//EN" "http://www.w3.org/Graphics/SVG/1.1/DTD/svg11.dtd">
<svg width="100%" height="100%" viewBox="0 0 256 256" version="1.1" xmlns="http://www.w3.org/2000/svg" xmlns:xlink="http://www.w3.org/1999/xlink" xml:space="preserve" xmlns:serif="http://www.serif.com/" style="fill-rule:evenodd;clip-rule:evenodd;stroke-linejoin:round;stroke-miterlimit:2;">
    <g transform="matrix(0.1,0,0,-0.1,0,256)">
        <path d="M310,1660C148,1440 15,1256 15,1251C15,1247 148,1062 310,842L605,441L892,441L1180,440L1185,463C1208,560 1330,1143 1330,1155C1330,1167 1316,1170 1261,1170C1215,1170 1191,1166 1188,1158C1185,1151 1157,1020 1124,867L1065,590L871,592L676,595L190,1251L248,1329C279,1372 388,1520 490,1658L675,1909L913,1910L1150,1910L1150,2060L605,2060L310,1660Z" style="fill:rgb(170,23,43);fill-rule:nonzero;"/>
        <path d="M1380,2058C1380,2056 1344,1892 1301,1693L1224,1330L1368,1330L1383,1398C1392,1435 1420,1565 1446,1688L1494,1910L1689,1910L1885,1909L2128,1580L2370,1251L1884,595L1647,592L1410,590L1410,440L1682,442L1954,445L2252,848L2550,1252L2253,1655L1955,2059L1668,2060C1509,2060 1380,2059 1380,2058Z" style="fill:rgb(76,77,77);fill-rule:nonzero;"/>
        <path d="M570,1509C474,1377 394,1263 392,1255C390,1248 471,1131 570,996L752,750L931,750L908,783C896,800 816,909 732,1023C648,1138 577,1237 574,1244C571,1252 633,1345 711,1451C789,1558 871,1669 892,1698L931,1750L838,1749L745,1749L570,1509Z" style="fill:rgb(170,23,43);fill-rule:nonzero;"/>
        <path d="M1811,1505C1920,1357 1989,1253 1986,1244C1982,1233 1691,831 1637,763C1630,753 1647,750 1718,750L1808,750L1984,990C2081,1123 2163,1237 2166,1244C2169,1252 2091,1367 1993,1501L1814,1745L1630,1751L1811,1505Z" style="fill:rgb(76,77,77);fill-rule:nonzero;"/>
    </g>
</svg>
